<svg id="logo-with-shadow" width="110" height="24" viewBox="0 0 110 24" fill="none" xmlns="http://www.w3.org/2000/svg">
  <g filter="url(#filter0_d_13_567)">
    <path d="M3.00571 4.47321C3.37536 3.73064 4.12125 3.25 4.94995 3.25H10.0749C11.2149 3.25 12.1249 4.16 12.1249 5.3V18.7C12.1249 19.84 11.2149 20.75 10.0749 20.75H4.94995C4.12125 20.75 3.37536 20.2694 3.00571 19.5268L0.330248 14.0753C0.123264 13.6604 0.123264 13.2396 0.330248 12.8247L3.00571 7.37321C3.10728 7.16794 3.2483 6.9867 3.41968 6.84131L6.73691 4.03441C7.15025 3.68351 7.76739 3.71779 8.13171 4.1228C8.49595 4.52773 8.46149 5.1453 8.05765 5.50936L5.015 8.26165C4.88546 8.37491 4.79214 8.52451 4.74677 8.68965L3.24995 14.0499L4.74677 19.3104C4.79214 19.4755 4.88546 19.6251 5.015 19.7384L8.05765 22.4906C8.46149 22.8547 8.49595 23.4723 8.13171 23.8772C7.76739 24.2822 7.15025 24.3165 6.73691 23.9656L3.41968 21.1587C3.2483 21.0133 3.10728 20.8321 3.00571 20.6268L0.330248 15.1753C0.123264 14.7604 0.123264 14.3396 0.330248 13.9247L3.00571 8.47321C3.10728 8.26794 3.2483 8.0867 3.41968 7.94131L6.73691 5.13441C7.15025 4.78351 7.76739 4.81779 8.13171 5.2228C8.49595 5.62773 8.46149 6.2453 8.05765 6.60936L5.015 9.36165C4.88546 9.47491 4.79214 9.62451 4.74677 9.78965L3.24995 15.1499L4.74677 20.4104C4.79214 20.5755 4.88546 20.7251 5.015 20.8384L8.05765 23.5906C8.46149 23.9547 8.49595 24.5723 8.13171 24.9772C7.76739 25.3822 7.15025 25.4165 6.73691 25.0656L3.41968 22.2587C3.2483 22.1133 3.10728 21.9321 3.00571 21.7268L0.330248 16.2753C0.123264 15.8604 0.123264 15.4396 0.330248 15.0247L3.00571 9.57321Z" fill="black"/>
  </g>
  <defs>
    <filter id="filter0_d_13_567" x="0" y="0" width="110" height="24" filterUnits="userSpaceOnUse" color-interpolation-filters="sRGB">
      <feFlood flood-opacity="0" result="BackgroundImageFix"/>
      <feColorMatrix in="SourceAlpha" type="matrix"
                     values="0 0 0 0 0  0 0 0 0 0  0 0 0 0 0  0 0 0 127 0"
                     result="hardAlpha"/>
      <feOffset dy="1"/>
      <feGaussianBlur stdDeviation="1"/>
      <feComposite in2="hardAlpha" operator="out"/>
      <feColorMatrix type="matrix"
                     values="0 0 0 0 0  0 0 0 0 0  0 0 0 0 0  0 0 0 0.1 0"/>
      <feBlend mode="normal" in2="BackgroundImageFix" result="effect1_dropShadow_13_567"/>
      <feBlend mode="normal" in="SourceGraphic" in2="effect1_dropShadow_13_567" result="shape"/>
    </filter>
  </defs>
</svg>


<svg width="110" height="24" viewBox="0 0 110 24" fill="none" xmlns="http://www.w3.org/2000/svg">
  <defs>
    <filter id="shadow" x="-10" y="-10" width="130" height="44" color-interpolation-filters="sRGB" filterUnits="userSpaceOnUse">
      <feDropShadow dx="0" dy="2" stdDeviation="2" flood-color="black" flood-opacity="0.3"/>
    </filter>
  </defs>

  <g filter="url(#shadow)">
    <path d="M3.00571 4.47321C3.37536 3.73064 4.12125 3.25 4.94995 3.25H10.0749C11.2149 3.25 12.1249 4.16 12.1249 5.3V18.7C12.1249 19.84 11.2149 20.75 10.0749 20.75H4.94995C4.12125 20.75 3.37536 20.2694 3.00571 19.5268L0.330248 14.0753C0.123264 13.6604 0.123264 13.2396 0.330248 12.8247L3.00571 7.37321Z" fill="black"/>
  </g>
</svg>
